<svg width="56" height="56" viewBox="0 0 56 56" fill="none" xmlns="http://www.w3.org/2000/svg">
<mask id="path-1-inside-1_235_16616" fill="white">
<path d="M28.0047 49C26.4833 49 25.1899 48.468 24.1243 47.404C23.0588 46.34 22.526 45.0473 22.526 43.526C22.526 43.2413 22.5501 42.9598 22.5983 42.6813C22.6481 42.4044 22.7228 42.1237 22.8223 41.839L16.5877 38.3343C16.0852 38.9083 15.4786 39.3563 14.7677 39.6783C14.0568 40.0003 13.2922 40.1613 12.474 40.1613C10.9527 40.1613 9.66 39.6247 8.596 38.5513C7.532 37.4827 7 36.1822 7 34.65C7 33.1178 7.532 31.8134 8.596 30.737C9.66 29.6606 10.9527 29.1223 12.474 29.1223C13.342 29.1223 14.1563 29.3051 14.917 29.6707C15.6777 30.0362 16.3131 30.5441 16.8233 31.1943L24.9317 27.111C24.6952 26.187 24.6983 25.2677 24.941 24.353C25.1837 23.4383 25.6379 22.6411 26.3037 21.9613L23.3777 17.626C23.0759 17.7629 22.7492 17.8656 22.3977 17.934C22.0492 18.004 21.6883 18.039 21.315 18.039C19.7937 18.039 18.501 17.5023 17.437 16.429C16.373 15.3588 15.841 14.0583 15.841 12.5277C15.841 10.997 16.3738 9.69267 17.4393 8.61467C18.5033 7.53822 19.7968 7 21.3197 7C22.8426 7 24.1492 7.53667 25.2397 8.61C26.3317 9.68333 26.8777 10.9869 26.8777 12.5207C26.8777 13.2673 26.7369 13.9704 26.4553 14.63C26.1738 15.2896 25.788 15.8667 25.298 16.3613L28.238 20.6943C28.5491 20.5574 28.8649 20.4548 29.1853 20.3863C29.5058 20.3179 29.848 20.2829 30.212 20.2813C30.8622 20.2813 31.4743 20.3824 32.0483 20.5847C32.6223 20.7838 33.1364 21.0692 33.5907 21.441L38.6073 17.3483C38.4222 16.9594 38.2682 16.5604 38.1453 16.1513C38.0224 15.7438 37.961 15.3113 37.961 14.854C37.961 13.3202 38.4938 12.0167 39.5593 10.9433C40.6249 9.87 41.9191 9.33333 43.442 9.33333C44.9649 9.33333 46.2716 9.86922 47.362 10.941C48.4524 12.0128 48.9984 13.314 49 14.8447C49.0016 16.3753 48.4556 17.6797 47.362 18.7577C46.27 19.8341 44.9618 20.3723 43.4373 20.3723C42.7762 20.3723 42.1688 20.2627 41.615 20.0433C41.0612 19.8224 40.5572 19.5269 40.103 19.1567L35.1307 23.2633C35.3453 23.6647 35.5071 24.0769 35.616 24.5C35.7249 24.9231 35.7786 25.3571 35.777 25.802C35.777 27.3342 35.231 28.637 34.139 29.7103C33.047 30.7837 31.738 31.3203 30.212 31.3203C29.3393 31.3203 28.5367 31.1306 27.804 30.751C27.0729 30.3714 26.4514 29.8558 25.9397 29.204L17.8453 33.2733C18.0133 33.7711 18.0779 34.2751 18.039 34.7853C17.9986 35.2956 17.8998 35.8058 17.7427 36.316L23.9447 39.8323C24.4471 39.2583 25.0444 38.8103 25.7367 38.4883C26.4289 38.1663 27.1833 38.0061 28 38.0077C29.5244 38.0077 30.8334 38.5404 31.927 39.606C33.019 40.67 33.565 41.9634 33.565 43.4863C33.565 45.0092 33.019 46.3081 31.927 47.383C30.835 48.461 29.5283 49 28.007 49M12.4973 37.828C13.3824 37.828 14.1384 37.5223 14.7653 36.911C15.3922 36.3012 15.7057 35.5452 15.7057 34.643C15.7057 33.7408 15.3961 32.977 14.777 32.3517C14.1579 31.7263 13.3902 31.4129 12.474 31.4113C11.6029 31.4113 10.8617 31.7209 10.2503 32.34C9.639 32.9591 9.33333 33.726 9.33333 34.6407C9.33333 35.5118 9.639 36.2608 10.2503 36.8877C10.8632 37.5146 11.6122 37.828 12.4973 37.828ZM21.336 15.7033C22.2227 15.7033 22.9787 15.3984 23.604 14.7887C24.2309 14.1773 24.5443 13.4213 24.5443 12.5207C24.5443 11.6184 24.2348 10.8609 23.6157 10.248C22.9966 9.63822 22.2297 9.33333 21.315 9.33333C20.4439 9.33333 19.7027 9.64678 19.0913 10.2737C18.48 10.9006 18.1743 11.6496 18.1743 12.5207C18.1743 13.3918 18.48 14.14 19.0913 14.7653C19.7027 15.3907 20.4509 15.7018 21.336 15.7033ZM28.0233 46.711C28.9084 46.711 29.6567 46.4061 30.268 45.7963C30.8809 45.1866 31.1873 44.4306 31.1873 43.5283C31.1873 42.6261 30.8817 41.8693 30.2703 41.258C29.659 40.6467 28.9022 40.341 28 40.341C27.1289 40.341 26.3807 40.6537 25.7553 41.279C25.1284 41.9059 24.815 42.6549 24.815 43.526C24.815 44.3971 25.1284 45.1453 25.7553 45.7707C26.3822 46.396 27.1382 46.7094 28.0233 46.711ZM30.2213 28.987C31.108 28.987 31.857 28.6821 32.4683 28.0723C33.0797 27.4626 33.3853 26.7066 33.3853 25.8043C33.3853 24.9021 33.0797 24.1446 32.4683 23.5317C31.8586 22.9203 31.1018 22.6147 30.198 22.6147C29.3269 22.6147 28.5787 22.9281 27.9533 23.555C27.3264 24.1819 27.013 24.9309 27.013 25.802C27.013 26.6731 27.3264 27.4213 27.9533 28.0467C28.5802 28.672 29.3362 28.9854 30.2213 28.987ZM43.4583 18.039C44.345 18.039 45.101 17.7341 45.7263 17.1243C46.3532 16.513 46.6667 15.7562 46.6667 14.854C46.6667 13.9518 46.3571 13.195 45.738 12.5837C45.1189 11.9723 44.352 11.6667 43.4373 11.6667C42.5662 11.6667 41.825 11.9723 41.2137 12.5837C40.6023 13.195 40.2959 13.9518 40.2943 14.854C40.2943 15.7236 40.6008 16.4718 41.2137 17.0987C41.825 17.7256 42.5732 18.039 43.4583 18.039Z"/>
</mask>
<path d="M28.0047 49C26.4833 49 25.1899 48.468 24.1243 47.404C23.0588 46.34 22.526 45.0473 22.526 43.526C22.526 43.2413 22.5501 42.9598 22.5983 42.6813C22.6481 42.4044 22.7228 42.1237 22.8223 41.839L16.5877 38.3343C16.0852 38.9083 15.4786 39.3563 14.7677 39.6783C14.0568 40.0003 13.2922 40.1613 12.474 40.1613C10.9527 40.1613 9.66 39.6247 8.596 38.5513C7.532 37.4827 7 36.1822 7 34.65C7 33.1178 7.532 31.8134 8.596 30.737C9.66 29.6606 10.9527 29.1223 12.474 29.1223C13.342 29.1223 14.1563 29.3051 14.917 29.6707C15.6777 30.0362 16.3131 30.5441 16.8233 31.1943L24.9317 27.111C24.6952 26.187 24.6983 25.2677 24.941 24.353C25.1837 23.4383 25.6379 22.6411 26.3037 21.9613L23.3777 17.626C23.0759 17.7629 22.7492 17.8656 22.3977 17.934C22.0492 18.004 21.6883 18.039 21.315 18.039C19.7937 18.039 18.501 17.5023 17.437 16.429C16.373 15.3588 15.841 14.0583 15.841 12.5277C15.841 10.997 16.3738 9.69267 17.4393 8.61467C18.5033 7.53822 19.7968 7 21.3197 7C22.8426 7 24.1492 7.53667 25.2397 8.61C26.3317 9.68333 26.8777 10.9869 26.8777 12.5207C26.8777 13.2673 26.7369 13.9704 26.4553 14.63C26.1738 15.2896 25.788 15.8667 25.298 16.3613L28.238 20.6943C28.5491 20.5574 28.8649 20.4548 29.1853 20.3863C29.5058 20.3179 29.848 20.2829 30.212 20.2813C30.8622 20.2813 31.4743 20.3824 32.0483 20.5847C32.6223 20.7838 33.1364 21.0692 33.5907 21.441L38.6073 17.3483C38.4222 16.9594 38.2682 16.5604 38.1453 16.1513C38.0224 15.7438 37.961 15.3113 37.961 14.854C37.961 13.3202 38.4938 12.0167 39.5593 10.9433C40.6249 9.87 41.9191 9.33333 43.442 9.33333C44.9649 9.33333 46.2716 9.86922 47.362 10.941C48.4524 12.0128 48.9984 13.314 49 14.8447C49.0016 16.3753 48.4556 17.6797 47.362 18.7577C46.27 19.8341 44.9618 20.3723 43.4373 20.3723C42.7762 20.3723 42.1688 20.2627 41.615 20.0433C41.0612 19.8224 40.5572 19.5269 40.103 19.1567L35.1307 23.2633C35.3453 23.6647 35.5071 24.0769 35.616 24.5C35.7249 24.9231 35.7786 25.3571 35.777 25.802C35.777 27.3342 35.231 28.637 34.139 29.7103C33.047 30.7837 31.738 31.3203 30.212 31.3203C29.3393 31.3203 28.5367 31.1306 27.804 30.751C27.0729 30.3714 26.4514 29.8558 25.9397 29.204L17.8453 33.2733C18.0133 33.7711 18.0779 34.2751 18.039 34.7853C17.9986 35.2956 17.8998 35.8058 17.7427 36.316L23.9447 39.8323C24.4471 39.2583 25.0444 38.8103 25.7367 38.4883C26.4289 38.1663 27.1833 38.0061 28 38.0077C29.5244 38.0077 30.8334 38.5404 31.927 39.606C33.019 40.67 33.565 41.9634 33.565 43.4863C33.565 45.0092 33.019 46.3081 31.927 47.383C30.835 48.461 29.5283 49 28.007 49M12.4973 37.828C13.3824 37.828 14.1384 37.5223 14.7653 36.911C15.3922 36.3012 15.7057 35.5452 15.7057 34.643C15.7057 33.7408 15.3961 32.977 14.777 32.3517C14.1579 31.7263 13.3902 31.4129 12.474 31.4113C11.6029 31.4113 10.8617 31.7209 10.2503 32.34C9.639 32.9591 9.33333 33.726 9.33333 34.6407C9.33333 35.5118 9.639 36.2608 10.2503 36.8877C10.8632 37.5146 11.6122 37.828 12.4973 37.828ZM21.336 15.7033C22.2227 15.7033 22.9787 15.3984 23.604 14.7887C24.2309 14.1773 24.5443 13.4213 24.5443 12.5207C24.5443 11.6184 24.2348 10.8609 23.6157 10.248C22.9966 9.63822 22.2297 9.33333 21.315 9.33333C20.4439 9.33333 19.7027 9.64678 19.0913 10.2737C18.48 10.9006 18.1743 11.6496 18.1743 12.5207C18.1743 13.3918 18.48 14.14 19.0913 14.7653C19.7027 15.3907 20.4509 15.7018 21.336 15.7033ZM28.0233 46.711C28.9084 46.711 29.6567 46.4061 30.268 45.7963C30.8809 45.1866 31.1873 44.4306 31.1873 43.5283C31.1873 42.6261 30.8817 41.8693 30.2703 41.258C29.659 40.6467 28.9022 40.341 28 40.341C27.1289 40.341 26.3807 40.6537 25.7553 41.279C25.1284 41.9059 24.815 42.6549 24.815 43.526C24.815 44.3971 25.1284 45.1453 25.7553 45.7707C26.3822 46.396 27.1382 46.7094 28.0233 46.711ZM30.2213 28.987C31.108 28.987 31.857 28.6821 32.4683 28.0723C33.0797 27.4626 33.3853 26.7066 33.3853 25.8043C33.3853 24.9021 33.0797 24.1446 32.4683 23.5317C31.8586 22.9203 31.1018 22.6147 30.198 22.6147C29.3269 22.6147 28.5787 22.9281 27.9533 23.555C27.3264 24.1819 27.013 24.9309 27.013 25.802C27.013 26.6731 27.3264 27.4213 27.9533 28.0467C28.5802 28.672 29.3362 28.9854 30.2213 28.987ZM43.4583 18.039C44.345 18.039 45.101 17.7341 45.7263 17.1243C46.3532 16.513 46.6667 15.7562 46.6667 14.854C46.6667 13.9518 46.3571 13.195 45.738 12.5837C45.1189 11.9723 44.352 11.6667 43.4373 11.6667C42.5662 11.6667 41.825 11.9723 41.2137 12.5837C40.6023 13.195 40.2959 13.9518 40.2943 14.854C40.2943 15.7236 40.6008 16.4718 41.2137 17.0987C41.825 17.7256 42.5732 18.039 43.4583 18.039Z" fill="white"/>
<path d="M22.5983 42.6813L22.3031 42.6283L22.3027 42.6301L22.5983 42.6813ZM22.8223 41.839L23.1055 41.938L23.1885 41.7007L22.9693 41.5775L22.8223 41.839ZM16.5877 38.3343L16.7347 38.0728L16.5224 37.9535L16.3619 38.1367L16.5877 38.3343ZM8.596 38.5513L8.80906 38.3401L8.8086 38.3397L8.596 38.5513ZM12.474 29.1223V28.8223V29.1223ZM16.8233 31.1943L16.5873 31.3795L16.7389 31.5727L16.9583 31.4623L16.8233 31.1943ZM24.9317 27.111L25.0666 27.3789L25.2821 27.2704L25.2223 27.0366L24.9317 27.111ZM26.3037 21.9613L26.518 22.1712L26.6893 21.9964L26.5523 21.7935L26.3037 21.9613ZM23.3777 17.626L23.6263 17.4582L23.4845 17.2481L23.2537 17.3528L23.3777 17.626ZM22.3977 17.934L22.3403 17.6395L22.3386 17.6399L22.3977 17.934ZM17.437 16.429L17.6501 16.2178L17.6497 16.2175L17.437 16.429ZM17.4393 8.61467L17.6527 8.82556L17.6527 8.82556L17.4393 8.61467ZM25.2397 8.61L25.0292 8.8238L25.0294 8.82395L25.2397 8.61ZM25.298 16.3613L25.0849 16.1502L24.9112 16.3255L25.0497 16.5298L25.298 16.3613ZM28.238 20.6943L27.9897 20.8628L28.1301 21.0696L28.3588 20.9689L28.238 20.6943ZM30.212 20.2813V19.9813L30.2107 19.9813L30.212 20.2813ZM32.0483 20.5847L31.9486 20.8676L31.95 20.8681L32.0483 20.5847ZM33.5907 21.441L33.4007 21.6732L33.5904 21.8284L33.7803 21.6735L33.5907 21.441ZM38.6073 17.3483L38.797 17.5808L38.9794 17.432L38.8782 17.2194L38.6073 17.3483ZM38.1453 16.1513L38.4326 16.065L38.4326 16.0647L38.1453 16.1513ZM47.362 18.7577L47.5726 18.9713V18.9713L47.362 18.7577ZM41.615 20.0433L41.5038 20.322L41.5045 20.3223L41.615 20.0433ZM40.103 19.1567L40.2925 18.9241L40.1017 18.7686L39.912 18.9254L40.103 19.1567ZM35.1307 23.2633L34.9396 23.032L34.7503 23.1884L34.8661 23.4048L35.1307 23.2633ZM35.777 25.802L35.477 25.8009V25.802H35.777ZM30.212 31.3203V31.0203V31.3203ZM27.804 30.751L27.6658 31.0173L27.666 31.0174L27.804 30.751ZM25.9397 29.204L26.1756 29.0187L26.0241 28.8258L25.8049 28.936L25.9397 29.204ZM17.8453 33.2733L17.7106 33.0053L17.4778 33.1224L17.5611 33.3693L17.8453 33.2733ZM18.039 34.7853L18.3381 34.809L18.3381 34.8081L18.039 34.7853ZM17.7427 36.316L17.456 36.2277L17.385 36.4581L17.5947 36.577L17.7427 36.316ZM23.9447 39.8323L23.7967 40.0933L24.0094 40.2139L24.1704 40.0299L23.9447 39.8323ZM28 38.0077L27.9994 38.3077H28V38.0077ZM31.927 39.606L31.7176 39.8209L31.7176 39.8209L31.927 39.606ZM31.927 47.383L31.7165 47.1692L31.7162 47.1695L31.927 47.383ZM14.7653 36.911L14.5562 36.696L14.5559 36.6962L14.7653 36.911ZM12.474 31.4113L12.4745 31.1113H12.474V31.4113ZM9.33333 34.6407H9.03333H9.33333ZM10.2503 36.8877L10.0356 37.0971L10.0358 37.0974L10.2503 36.8877ZM21.336 15.7033L21.3355 16.0033H21.336V15.7033ZM23.604 14.7887L23.8134 15.0035L23.8134 15.0034L23.604 14.7887ZM23.6157 10.248L23.8267 10.0348L23.8262 10.0343L23.6157 10.248ZM28.0233 46.711L28.0228 47.011H28.0233V46.711ZM30.268 45.7963L30.0564 45.5837L30.0561 45.5839L30.268 45.7963ZM28 40.341V40.041V40.341ZM30.2213 28.987L30.2208 29.287H30.2213V28.987ZM32.4683 23.5317L32.2559 23.7435H32.2559L32.4683 23.5317ZM27.9533 23.555L28.1655 23.7671L28.1657 23.7669L27.9533 23.555ZM45.7263 17.1243L45.9358 17.3391L45.9358 17.3391L45.7263 17.1243ZM43.4373 11.6667V11.9667V11.6667ZM40.2943 14.854L39.9943 14.8535V14.854H40.2943ZM41.2137 17.0987L41.4284 16.8892L41.4282 16.8889L41.2137 17.0987ZM28.0047 49V48.7C26.5619 48.7 25.345 48.1989 24.3363 47.1917L24.1243 47.404L23.9124 47.6163C25.0348 48.7371 26.4048 49.3 28.0047 49.3V49ZM24.1243 47.404L24.3363 47.1917C23.3278 46.1846 22.826 44.9686 22.826 43.526H22.526H22.226C22.226 45.126 22.7898 46.4954 23.9124 47.6163L24.1243 47.404ZM22.526 43.526H22.826C22.826 43.2584 22.8487 42.9939 22.8939 42.7325L22.5983 42.6813L22.3027 42.6301C22.2516 42.9256 22.226 43.2243 22.226 43.526H22.526ZM22.5983 42.6813L22.8936 42.7344C22.9404 42.4742 23.0108 42.2088 23.1055 41.938L22.8223 41.839L22.5392 41.74C22.4347 42.0385 22.3558 42.3347 22.3031 42.6283L22.5983 42.6813ZM22.8223 41.839L22.9693 41.5775L16.7347 38.0728L16.5877 38.3343L16.4407 38.5958L22.6753 42.1005L22.8223 41.839ZM16.5877 38.3343L16.3619 38.1367C15.8883 38.6778 15.3167 39.1003 14.6439 39.4051L14.7677 39.6783L14.8914 39.9516C15.6404 39.6124 16.2821 39.1389 16.8134 38.5319L16.5877 38.3343ZM14.7677 39.6783L14.6439 39.4051C13.9738 39.7086 13.2516 39.8613 12.474 39.8613V40.1613V40.4613C13.3328 40.4613 14.1398 40.2921 14.8914 39.9516L14.7677 39.6783ZM12.474 40.1613V39.8613C11.0321 39.8613 9.8163 39.3562 8.80906 38.3401L8.596 38.5513L8.38294 38.7625C9.5037 39.8931 10.8732 40.4613 12.474 40.4613V40.1613ZM8.596 38.5513L8.8086 38.3397C7.80157 37.3282 7.3 36.1043 7.3 34.65H7H6.7C6.7 36.2601 7.26243 37.6371 8.3834 38.763L8.596 38.5513ZM7 34.65H7.3C7.3 33.1956 7.80163 31.9674 8.80936 30.9479L8.596 30.737L8.38264 30.5261C7.26237 31.6595 6.7 33.0399 6.7 34.65H7ZM8.596 30.737L8.80936 30.9479C9.81668 29.9288 11.0324 29.4223 12.474 29.4223V29.1223V28.8223C10.873 28.8223 9.50332 29.3923 8.38264 30.5261L8.596 30.737ZM12.474 29.1223V29.4223C13.2983 29.4223 14.0681 29.5956 14.7871 29.9411L14.917 29.6707L15.0469 29.4003C14.2446 29.0147 13.3857 28.8223 12.474 28.8223V29.1223ZM14.917 29.6707L14.7871 29.9411C15.5072 30.2871 16.1061 30.7662 16.5873 31.3795L16.8233 31.1943L17.0593 31.0091C16.5201 30.322 15.8481 29.7853 15.0469 29.4003L14.917 29.6707ZM16.8233 31.1943L16.9583 31.4623L25.0666 27.3789L24.9317 27.111L24.7967 26.8431L16.6884 30.9264L16.8233 31.1943ZM24.9317 27.111L25.2223 27.0366C24.9985 26.1619 25.0016 25.2946 25.231 24.4299L24.941 24.353L24.651 24.2761C24.3951 25.2407 24.392 26.2121 24.641 27.1854L24.9317 27.111ZM24.941 24.353L25.231 24.4299C25.4603 23.5657 25.8883 22.8142 26.518 22.1712L26.3037 21.9613L26.0893 21.7514C25.3875 22.468 24.9071 23.311 24.651 24.2761L24.941 24.353ZM26.3037 21.9613L26.5523 21.7935L23.6263 17.4582L23.3777 17.626L23.129 17.7938L26.055 22.1292L26.3037 21.9613ZM23.3777 17.626L23.2537 17.3528C22.9749 17.4793 22.6708 17.5752 22.3403 17.6395L22.3977 17.934L22.455 18.2285C22.8277 18.1559 23.1769 18.0465 23.5016 17.8992L23.3777 17.626ZM22.3977 17.934L22.3386 17.6399C22.0105 17.7058 21.6695 17.739 21.315 17.739V18.039V18.339C21.7072 18.339 22.0879 18.3022 22.4568 18.2281L22.3977 17.934ZM21.315 18.039V17.739C19.8731 17.739 18.6573 17.2339 17.6501 16.2178L17.437 16.429L17.2239 16.6402C18.3447 17.7708 19.7142 18.339 21.315 18.339V18.039ZM17.437 16.429L17.6497 16.2175C16.6425 15.2044 16.141 13.9803 16.141 12.5277H15.841H15.541C15.541 14.1363 16.1035 15.5132 17.2242 16.6405L17.437 16.429ZM15.841 12.5277H16.141C16.141 11.0751 16.6433 9.84679 17.6527 8.82556L17.4393 8.61467L17.226 8.40377C16.1043 9.53854 15.541 10.9189 15.541 12.5277H15.841ZM17.4393 8.61467L17.6527 8.82556C18.6599 7.80653 19.8764 7.3 21.3197 7.3V7V6.7C19.7172 6.7 18.3467 7.26991 17.226 8.40377L17.4393 8.61467ZM21.3197 7V7.3C22.7634 7.3 23.9946 7.80542 25.0292 8.8238L25.2397 8.61L25.4501 8.3962C24.3038 7.26792 22.9217 6.7 21.3197 6.7V7ZM25.2397 8.61L25.0294 8.82395C26.0639 9.84078 26.5777 11.0672 26.5777 12.5207H26.8777H27.1777C27.1777 10.9066 26.5995 9.52589 25.45 8.39605L25.2397 8.61ZM26.8777 12.5207H26.5777C26.5777 13.2286 26.4444 13.8914 26.1794 14.5122L26.4553 14.63L26.7312 14.7478C27.0294 14.0495 27.1777 13.3061 27.1777 12.5207H26.8777ZM26.4553 14.63L26.1794 14.5122C25.9123 15.138 25.5474 15.6832 25.0849 16.1502L25.298 16.3613L25.5111 16.5725C26.0286 16.0501 26.4353 15.4411 26.7312 14.7478L26.4553 14.63ZM25.298 16.3613L25.0497 16.5298L27.9897 20.8628L28.238 20.6943L28.4862 20.5259L25.5462 16.1929L25.298 16.3613ZM28.238 20.6943L28.3588 20.9689C28.6519 20.84 28.9483 20.7437 29.248 20.6797L29.1853 20.3863L29.1227 20.093C28.7815 20.1658 28.4463 20.2749 28.1172 20.4197L28.238 20.6943ZM29.1853 20.3863L29.248 20.6797C29.5462 20.616 29.8677 20.5828 30.2133 20.5813L30.212 20.2813L30.2107 19.9813C29.8283 19.983 29.4654 20.0198 29.1227 20.093L29.1853 20.3863ZM30.212 20.2813V20.5813C30.8306 20.5813 31.4088 20.6774 31.9486 20.8676L32.0483 20.5847L32.148 20.3017C31.5399 20.0875 30.8938 19.9813 30.212 19.9813V20.2813ZM32.0483 20.5847L31.95 20.8681C32.4919 21.0561 32.9747 21.3245 33.4007 21.6732L33.5907 21.441L33.7807 21.2088C33.2982 20.8139 32.7528 20.5115 32.1467 20.3012L32.0483 20.5847ZM33.5907 21.441L33.7803 21.6735L38.797 17.5808L38.6073 17.3483L38.4177 17.1159L33.401 21.2085L33.5907 21.441ZM38.6073 17.3483L38.8782 17.2194C38.6996 16.8442 38.5511 16.4594 38.4326 16.065L38.1453 16.1513L37.858 16.2376C37.9853 16.6615 38.1448 17.0747 38.3365 17.4773L38.6073 17.3483ZM38.1453 16.1513L38.4326 16.0647C38.3187 15.6873 38.261 15.2842 38.261 14.854H37.961H37.661C37.661 15.3385 37.7261 15.8003 37.8581 16.2379L38.1453 16.1513ZM37.961 14.854H38.261C38.261 13.3982 38.7633 12.1709 39.7722 11.1547L39.5593 10.9433L39.3464 10.732C38.2242 11.8624 37.661 13.2423 37.661 14.854H37.961ZM39.5593 10.9433L39.7722 11.1547C40.781 10.1385 41.9984 9.63333 43.442 9.63333V9.33333V9.03333C41.8398 9.03333 40.4687 9.60147 39.3464 10.732L39.5593 10.9433ZM43.442 9.33333V9.63333C44.8859 9.63333 46.1171 10.1381 47.1517 11.155L47.362 10.941L47.5723 10.727C46.426 9.60037 45.0439 9.03333 43.442 9.03333V9.33333ZM47.362 10.941L47.1517 11.155C48.1848 12.1703 48.6985 13.3946 48.7 14.845L49 14.8447L49.3 14.8444C49.2984 13.2334 48.7201 11.8552 47.5723 10.727L47.362 10.941ZM49 14.8447L48.7 14.845C48.7015 16.2949 48.1879 17.5223 47.1514 18.544L47.362 18.7577L47.5726 18.9713C48.7232 17.8371 49.3016 16.4557 49.3 14.8444L49 14.8447ZM47.362 18.7577L47.1514 18.544C46.1152 19.5655 44.8824 20.0723 43.4373 20.0723V20.3723V20.6723C45.0411 20.6723 46.4248 20.1027 47.5726 18.9713L47.362 18.7577ZM43.4373 20.3723V20.0723C42.8099 20.0723 42.2404 19.9684 41.7255 19.7644L41.615 20.0433L41.5045 20.3223C42.0971 20.557 42.7425 20.6723 43.4373 20.6723V20.3723ZM41.615 20.0433L41.7261 19.7647C41.2002 19.5549 40.7227 19.2747 40.2925 18.9241L40.103 19.1567L39.9135 19.3892C40.3917 19.779 40.9222 20.09 41.5038 20.322L41.615 20.0433ZM40.103 19.1567L39.912 18.9254L34.9396 23.032L35.1307 23.2633L35.3217 23.4946L40.294 19.388L40.103 19.1567ZM35.1307 23.2633L34.8661 23.4048C35.07 23.7859 35.2228 24.1758 35.3255 24.5748L35.616 24.5L35.9065 24.4252C35.7914 23.978 35.6207 23.5434 35.3952 23.1218L35.1307 23.2633ZM35.616 24.5L35.3255 24.5748C35.4279 24.9727 35.4785 25.3812 35.477 25.8009L35.777 25.802L36.077 25.803C36.0786 25.3331 36.0219 24.8736 35.9065 24.4252L35.616 24.5ZM35.777 25.802H35.477C35.477 27.2538 34.9633 28.4795 33.9287 29.4964L34.139 29.7103L34.3493 29.9243C35.4987 28.7945 36.077 27.4146 36.077 25.802H35.777ZM34.139 29.7103L33.9287 29.4964C32.8926 30.5148 31.659 31.0203 30.212 31.0203V31.3203V31.6203C31.817 31.6203 33.2014 31.0526 34.3493 29.9243L34.139 29.7103ZM30.212 31.3203V31.0203C29.3845 31.0203 28.6296 30.8408 27.942 30.4846L27.804 30.751L27.666 31.0174C28.4438 31.4203 29.2942 31.6203 30.212 31.6203V31.3203ZM27.804 30.751L27.9422 30.4847C27.2493 30.125 26.6611 29.6371 26.1756 29.0187L25.9397 29.204L25.7037 29.3893C26.2418 30.0745 26.8964 30.6179 27.6658 31.0173L27.804 30.751ZM25.9397 29.204L25.8049 28.936L17.7106 33.0053L17.8453 33.2733L17.9801 33.5414L26.0744 29.472L25.9397 29.204ZM17.8453 33.2733L17.5611 33.3693C17.7166 33.8299 17.7756 34.2936 17.7399 34.7625L18.039 34.7853L18.3381 34.8081C18.3802 34.2566 18.3101 33.7123 18.1296 33.1774L17.8453 33.2733ZM18.039 34.7853L17.7399 34.7616C17.7013 35.249 17.6069 35.7376 17.456 36.2277L17.7427 36.316L18.0294 36.4043C18.1927 35.874 18.2958 35.3421 18.3381 34.809L18.039 34.7853ZM17.7427 36.316L17.5947 36.577L23.7967 40.0933L23.9447 39.8323L24.0926 39.5714L17.8906 36.055L17.7427 36.316ZM23.9447 39.8323L24.1704 40.0299C24.6453 39.4874 25.2088 39.0647 25.8632 38.7603L25.7367 38.4883L25.6101 38.2163C24.8801 38.5559 24.2489 39.0293 23.7189 39.6347L23.9447 39.8323ZM25.7367 38.4883L25.8632 38.7603C26.5129 38.4581 27.2235 38.3062 27.9994 38.3077L28 38.0077L28.0006 37.7077C27.1431 37.706 26.3449 37.8745 25.6101 38.2163L25.7367 38.4883ZM28 38.0077V38.3077C29.4461 38.3077 30.68 38.8098 31.7176 39.8209L31.927 39.606L32.1364 39.3911C30.9869 38.2711 29.6028 37.7077 28 37.7077V38.0077ZM31.927 39.606L31.7176 39.8209C32.7518 40.8285 33.265 42.0445 33.265 43.4863H33.565H33.865C33.865 41.8824 33.2862 40.5115 32.1364 39.3911L31.927 39.606ZM33.565 43.4863H33.265C33.265 44.9283 32.7517 46.1503 31.7165 47.1692L31.927 47.383L32.1374 47.5968C33.2863 46.4659 33.865 45.0902 33.865 43.4863H33.565ZM31.927 47.383L31.7162 47.1695C30.6798 48.1926 29.4487 48.7 28.007 48.7V49V49.3C29.608 49.3 30.9902 48.7294 32.1378 47.5965L31.927 47.383ZM12.4973 37.828V38.128C13.4598 38.128 14.2912 37.7924 14.9748 37.1258L14.7653 36.911L14.5559 36.6962C13.9857 37.2523 13.3051 37.528 12.4973 37.528V37.828ZM14.7653 36.911L14.9745 37.126C15.6615 36.4578 16.0057 35.6233 16.0057 34.643H15.7057H15.4057C15.4057 35.4671 15.1229 36.1446 14.5562 36.696L14.7653 36.911ZM15.7057 34.643H16.0057C16.0057 33.664 15.6665 32.8237 14.9902 32.1406L14.777 32.3517L14.5638 32.5627C15.1258 33.1303 15.4057 33.8176 15.4057 34.643H15.7057ZM14.777 32.3517L14.9902 32.1406C14.3123 31.4559 13.467 31.113 12.4745 31.1113L12.474 31.4113L12.4735 31.7113C13.3135 31.7128 14.0035 31.9967 14.5638 32.5627L14.777 32.3517ZM12.474 31.4113V31.1113C11.5228 31.1113 10.7046 31.4529 10.0369 32.1292L10.2503 32.34L10.4638 32.5508C11.0187 31.9888 11.683 31.7113 12.474 31.7113V31.4113ZM10.2503 32.34L10.0369 32.1292C9.36701 32.8076 9.03333 33.6516 9.03333 34.6407H9.33333H9.63333C9.63333 33.8004 9.91099 33.1106 10.4638 32.5508L10.2503 32.34ZM9.33333 34.6407H9.03333C9.03333 35.5905 9.3699 36.4145 10.0356 37.0971L10.2503 36.8877L10.4651 36.6782C9.9081 36.107 9.63333 35.4331 9.63333 34.6407H9.33333ZM10.2503 36.8877L10.0358 37.0974C10.7058 37.7826 11.5324 38.128 12.4973 38.128V37.828V37.528C11.6921 37.528 11.0207 37.2465 10.4648 36.6779L10.2503 36.8877ZM21.336 15.7033V16.0033C22.2996 16.0033 23.1311 15.6688 23.8134 15.0035L23.604 14.7887L23.3946 14.5739C22.8262 15.1281 22.1457 15.4033 21.336 15.4033V15.7033ZM23.604 14.7887L23.8134 15.0034C24.5001 14.3339 24.8443 13.4996 24.8443 12.5207H24.5443H24.2443C24.2443 13.3431 23.9617 14.0208 23.3945 14.5739L23.604 14.7887ZM24.5443 12.5207H24.8443C24.8443 11.5415 24.505 10.7062 23.8267 10.0348L23.6157 10.248L23.4046 10.4612C23.9646 11.0155 24.2443 11.6953 24.2443 12.5207H24.5443ZM23.6157 10.248L23.8262 10.0343C23.1478 9.36606 22.3038 9.03333 21.315 9.03333V9.33333V9.63333C22.1555 9.63333 22.8454 9.91038 23.4052 10.4617L23.6157 10.248ZM21.315 9.33333V9.03333C20.3625 9.03333 19.544 9.37977 18.8766 10.0642L19.0913 10.2737L19.3061 10.4831C19.8613 9.91379 20.5252 9.63333 21.315 9.63333V9.33333ZM19.0913 10.2737L18.8766 10.0642C18.2109 10.7468 17.8743 11.5708 17.8743 12.5207H18.1743H18.4743C18.4743 11.7283 18.7491 11.0543 19.3061 10.4831L19.0913 10.2737ZM18.1743 12.5207H17.8743C17.8743 13.4705 18.2109 14.2939 18.8768 14.9751L19.0913 14.7653L19.3059 14.5556C18.7491 13.9861 18.4743 13.313 18.4743 12.5207H18.1743ZM19.0913 14.7653L18.8768 14.9751C19.5456 15.6592 20.3715 16.0016 21.3355 16.0033L21.336 15.7033L21.3365 15.4033C20.5303 15.4019 19.8597 15.1222 19.3059 14.5556L19.0913 14.7653ZM28.0233 46.711V47.011C28.9856 47.011 29.8107 46.6762 30.4799 46.0087L30.268 45.7963L30.0561 45.5839C29.5026 46.1361 28.8312 46.411 28.0233 46.411V46.711ZM30.268 45.7963L30.4796 46.009C31.1518 45.3402 31.4873 44.5065 31.4873 43.5283H31.1873H30.8873C30.8873 44.3546 30.61 45.0329 30.0564 45.5837L30.268 45.7963ZM31.1873 43.5283H31.4873C31.4873 42.5504 31.1527 41.7161 30.4825 41.0459L30.2703 41.258L30.0582 41.4701C30.6106 42.0225 30.8873 42.7018 30.8873 43.5283H31.1873ZM30.2703 41.258L30.4825 41.0459C29.8122 40.3756 28.9779 40.041 28 40.041V40.341V40.641C28.8265 40.641 29.5058 40.9177 30.0582 41.4701L30.2703 41.258ZM28 40.341V40.041C27.048 40.041 26.2238 40.3862 25.5432 41.0669L25.7553 41.279L25.9675 41.4911C26.5375 40.9211 27.2098 40.641 28 40.641V40.341ZM25.7553 41.279L25.5432 41.0669C24.8612 41.7489 24.515 42.5738 24.515 43.526H24.815H25.115C25.115 42.736 25.3957 42.0629 25.9675 41.4911L25.7553 41.279ZM24.815 43.526H24.515C24.515 44.4783 24.8612 45.3025 25.5435 45.9831L25.7553 45.7707L25.9672 45.5583C25.3957 44.9882 25.115 44.316 25.115 43.526H24.815ZM25.7553 45.7707L25.5435 45.9831C26.2264 46.6643 27.0584 47.0093 28.0228 47.011L28.0233 46.711L28.0239 46.411C27.218 46.4096 26.538 46.1277 25.9672 45.5583L25.7553 45.7707ZM30.2213 28.987V29.287C31.185 29.287 32.011 28.9523 32.6802 28.2847L32.4683 28.0723L32.2565 27.8599C31.703 28.4119 31.031 28.687 30.2213 28.687V28.987ZM32.4683 28.0723L32.6802 28.2847C33.3507 27.6159 33.6853 26.7823 33.6853 25.8043H33.3853H33.0853C33.0853 26.6308 32.8086 27.3092 32.2565 27.8599L32.4683 28.0723ZM33.3853 25.8043H33.6853C33.6853 24.8264 33.3507 23.9915 32.6807 23.3198L32.4683 23.5317L32.2559 23.7435C32.8086 24.2976 33.0853 24.9778 33.0853 25.8043H33.3853ZM32.4683 23.5317L32.6807 23.3198C32.0118 22.6492 31.1773 22.3147 30.198 22.3147V22.6147V22.9147C31.0262 22.9147 31.7053 23.1915 32.2559 23.7435L32.4683 23.5317ZM30.198 22.6147V22.3147C29.2457 22.3147 28.4215 22.6609 27.7409 23.3431L27.9533 23.555L28.1657 23.7669C28.7358 23.1954 29.408 22.9147 30.198 22.9147V22.6147ZM27.9533 23.555L27.7412 23.3429C27.0592 24.0249 26.713 24.8498 26.713 25.802H27.013H27.313C27.313 25.012 27.5937 24.3389 28.1655 23.7671L27.9533 23.555ZM27.013 25.802H26.713C26.713 26.7543 27.0592 27.5785 27.7415 28.2591L27.9533 28.0467L28.1652 27.8343C27.5937 27.2642 27.313 26.592 27.313 25.802H27.013ZM27.9533 28.0467L27.7415 28.2591C28.4244 28.9403 29.2564 29.2853 30.2208 29.287L30.2213 28.987L30.2219 28.687C29.416 28.6856 28.736 28.4037 28.1652 27.8343L27.9533 28.0467ZM43.4583 18.039V18.339C44.4219 18.339 45.2535 18.0045 45.9358 17.3391L45.7263 17.1243L45.5169 16.9095C44.9485 17.4638 44.2681 17.739 43.4583 17.739V18.039ZM45.7263 17.1243L45.9358 17.3391C46.6225 16.6694 46.9667 15.8343 46.9667 14.854H46.6667H46.3667C46.3667 15.6781 46.0839 16.3566 45.5169 16.9096L45.7263 17.1243ZM46.6667 14.854H46.9667C46.9667 13.8749 46.6273 13.0402 45.9488 12.3702L45.738 12.5837L45.5272 12.7971C46.0869 13.3498 46.3667 14.0287 46.3667 14.854H46.6667ZM45.738 12.5837L45.9488 12.3702C45.2704 11.7003 44.4264 11.3667 43.4373 11.3667V11.6667V11.9667C44.2776 11.9667 44.9674 12.2443 45.5272 12.7971L45.738 12.5837ZM43.4373 11.6667V11.3667C42.4873 11.3667 41.6696 11.7035 41.0015 12.3715L41.2137 12.5837L41.4258 12.7958C41.9804 12.2412 42.6451 11.9667 43.4373 11.9667V11.6667ZM41.2137 12.5837L41.0015 12.3715C40.3314 13.0417 39.996 13.8757 39.9943 14.8535L40.2943 14.854L40.5943 14.8545C40.5958 14.0278 40.8733 13.3483 41.4258 12.7958L41.2137 12.5837ZM40.2943 14.854H39.9943C39.9943 15.8027 40.332 16.626 40.9992 17.3084L41.2137 17.0987L41.4282 16.8889C40.8696 16.3176 40.5943 15.6444 40.5943 14.854H40.2943ZM41.2137 17.0987L40.9989 17.3081C41.6674 17.9936 42.4933 18.339 43.4583 18.339V18.039V17.739C42.6531 17.739 41.9826 17.4575 41.4284 16.8892L41.2137 17.0987Z" fill="#005BAC" mask="url(#path-1-inside-1_235_16616)"/>
</svg>
